<svg xmlns="http://www.w3.org/2000/svg" width="32" height="32" viewBox="0 0 100 100" fill="none">
  <rect width="100" height="100" rx="20" fill="#050508"/>
  <path 
    d="M50 15C30 15 15 35 15 55C15 75 35 85 55 85C75 85 85 65 85 45C85 25 70 15 50 15Z" 
    stroke="white" 
    stroke-width="5" 
    stroke-linecap="round"
    style="opacity: 0.9"
  />
  <circle cx="78" cy="30" r="8" fill="white" />
  <path 
    d="M50 35C50 45 45 50 35 50C45 50 50 55 50 65C50 55 55 50 65 50C55 50 50 45 50 35Z" 
    fill="white" 
  />
</svg>
